<?xml version="1.0" encoding="UTF-8" standalone="no"?>
<svg width="38px" height="65px" viewBox="0 0 38 65" version="1.1" xmlns="http://www.w3.org/2000/svg" xmlns:xlink="http://www.w3.org/1999/xlink" xmlns:sketch="http://www.bohemiancoding.com/sketch/ns">
    <!-- Generator: Sketch 3.5.2 (25235) - http://www.bohemiancoding.com/sketch -->
    <title>Untitled 2</title>
    <desc>Created with Sketch.</desc>
    <defs></defs>
    <g id="Page-1" stroke="none" stroke-width="1" fill="none" fill-rule="evenodd" sketch:type="MSPage">
        <g id="icon-twitter" sketch:type="MSLayerGroup">
            <g id="Group" sketch:type="MSShapeGroup">
                <path d="M38,37.63 C36.627,38.245 35.182,38.66 33.628,38.84 C35.218,37.9 36.41,36.402 36.97,34.63 C35.525,35.5 33.88,36.13 32.183,36.474 C30.755,35.029 28.786,34.089 26.6,34.089 C22.41,34.089 19.03,37.467 19.03,41.659 C19.03,42.254 19.066,42.869 19.193,43.411 C12.906,43.067 7.341,40.213 3.565,35.624 C2.933,36.744 2.535,37.9 2.535,39.31 C2.535,41.912 3.873,44.225 5.932,45.598 C4.686,45.562 3.529,45.218 2.5,44.658 L2.5,44.748 C2.5,48.434 5.12,51.505 8.588,52.192 C7.938,52.372 7.251,52.462 6.564,52.462 C6.094,52.462 5.624,52.409 5.154,52.318 C6.094,55.318 8.931,57.558 12.219,57.594 C9.653,59.654 6.347,61.189 2.806,61.189 C2.191,61.189 1.596,61.152 0.999,61.062 C4.341,63.212 8.369,64.152 12.652,64.152 C26.599,64.152 34.222,52.588 34.222,42.562 L34.222,41.568 C35.687,40.501 36.969,39.182 37.999,37.628 L38,37.63 Z" id="Shape" fill="#DDDDDD"></path>
                <path d="M38,3.63 C36.627,4.245 35.182,4.66 33.628,4.84 C35.218,3.9 36.41,2.402 36.97,0.63 C35.525,1.5 33.88,2.13 32.183,2.474 C30.755,1.03 28.786,0.09 26.6,0.09 C22.41,0.09 19.03,3.468 19.03,7.66 C19.03,8.255 19.066,8.87 19.193,9.412 C12.906,9.068 7.34,6.214 3.565,1.625 C2.933,2.745 2.535,3.901 2.535,5.311 C2.535,7.913 3.873,10.226 5.932,11.599 C4.686,11.563 3.529,11.219 2.5,10.659 L2.5,10.749 C2.5,14.435 5.12,17.506 8.588,18.193 C7.938,18.373 7.251,18.463 6.564,18.463 C6.094,18.463 5.624,18.41 5.154,18.319 C6.094,21.319 8.931,23.559 12.219,23.595 C9.653,25.655 6.347,27.19 2.806,27.19 C2.191,27.19 1.596,27.153 0.999,27.062 C4.341,29.212 8.369,30.152 12.652,30.152 C26.599,30.152 34.222,18.589 34.222,8.562 L34.222,7.57 C35.69,6.502 36.97,5.183 38,3.63 L38,3.63 Z" id="Shape" fill="#FFFFFF"></path>
            </g>
        </g>
    </g>
</svg>