<?xml version="1.0" encoding="UTF-8" standalone="no"?>
<svg width="39px" height="66px" viewBox="0 0 39 66" version="1.1" xmlns="http://www.w3.org/2000/svg" xmlns:xlink="http://www.w3.org/1999/xlink" xmlns:sketch="http://www.bohemiancoding.com/sketch/ns">
    <!-- Generator: Sketch 3.5.2 (25235) - http://www.bohemiancoding.com/sketch -->
    <title>Slice 1</title>
    <desc>Created with Sketch.</desc>
    <defs></defs>
    <g id="Page-1" stroke="none" stroke-width="1" fill="none" fill-rule="evenodd" sketch:type="MSPage">
        <g id="icon-docs" sketch:type="MSLayerGroup">
            <g id="Group" sketch:type="MSShapeGroup">
                <path d="M5.125,42.5 L15.375,42.5 L15.375,45.063 L5.125,45.063 L5.125,42.5 L5.125,42.5 Z M5.125,47.625 L15.375,47.625 L15.375,50.188 L5.125,50.188 L5.125,47.625 L5.125,47.625 Z M5.125,52.75 L15.375,52.75 L15.375,55.313 L5.125,55.313 L5.125,52.75 L5.125,52.75 Z M33.313,45.062 L23.063,45.062 L23.063,42.5 L33.313,42.5 L33.313,45.063 L33.313,45.062 Z M33.313,50.188 L23.063,50.188 L23.063,47.625 L33.313,47.625 L33.313,50.188 L33.313,50.188 Z M33.313,55.312 L23.063,55.312 L23.063,52.75 L33.313,52.75 L33.313,55.313 L33.313,55.312 Z M38.437,37.375 L38.437,60.438 C38.411,61.158 38.157,61.758 37.677,62.238 C37.197,62.72 36.597,62.973 35.875,63 L21.78,63 L19.22,65.563 L16.655,63 L2.563,63 C1.843,62.973 1.241,62.72 0.761,62.24 C0.281,61.76 0.028,61.157 0,60.436 L0,37.376 C0.027,36.656 0.28,36.056 0.76,35.574 C1.24,35.094 1.842,34.84 2.562,34.814 L16.656,34.814 L19.219,37.376 L21.779,34.813 L35.874,34.813 C36.594,34.84 37.194,35.093 37.676,35.573 C38.156,36.055 38.41,36.655 38.436,37.376 L38.437,37.375 Z M17.937,38.655 L16.657,37.375 L2.56,37.375 L2.56,60.438 L17.936,60.438 L17.936,38.656 L17.937,38.655 Z M35.875,37.375 L21.78,37.375 L20.5,38.655 L20.5,60.437 L35.875,60.437 L35.875,37.376 L35.875,37.375 Z" id="Shape" fill="#DDDDDD"></path>
                <path d="M5.125,8.5 L15.375,8.5 L15.375,11.063 L5.125,11.063 L5.125,8.5 L5.125,8.5 Z M5.125,13.625 L15.375,13.625 L15.375,16.188 L5.125,16.188 L5.125,13.625 L5.125,13.625 Z M5.125,18.75 L15.375,18.75 L15.375,21.313 L5.125,21.313 L5.125,18.75 L5.125,18.75 Z M33.313,11.062 L23.063,11.062 L23.063,8.5 L33.313,8.5 L33.313,11.063 L33.313,11.062 Z M33.313,16.188 L23.063,16.188 L23.063,13.625 L33.313,13.625 L33.313,16.188 L33.313,16.188 Z M33.313,21.313 L23.063,21.313 L23.063,18.75 L33.313,18.75 L33.313,21.313 L33.313,21.313 Z M38.437,3.375 L38.437,26.438 C38.411,27.158 38.157,27.758 37.677,28.238 C37.197,28.72 36.597,28.973 35.875,29 L21.78,29 L19.22,31.563 L16.655,29 L2.563,29 C1.843,28.973 1.241,28.72 0.761,28.24 C0.281,27.76 0.028,27.157 0,26.437 L0,3.375 C0.027,2.655 0.28,2.055 0.76,1.573 C1.24,1.093 1.842,0.839 2.562,0.813 L16.656,0.813 L19.219,3.375 L21.78,0.812 L35.875,0.812 C36.595,0.839 37.195,1.092 37.677,1.572 C38.157,2.054 38.411,2.654 38.437,3.375 L38.437,3.375 Z M17.937,4.655 L16.657,3.375 L2.56,3.375 L2.56,26.438 L17.936,26.438 L17.936,4.655 L17.937,4.655 Z M35.875,3.375 L21.78,3.375 L20.5,4.655 L20.5,26.437 L35.875,26.437 L35.875,3.375 L35.875,3.375 Z" id="Shape" fill="#FFFFFF"></path>
            </g>
        </g>
    </g>
</svg>