<?xml version="1.0" encoding="UTF-8" standalone="no"?>
<svg width="42px" height="77px" viewBox="0 0 42 77" version="1.1" xmlns="http://www.w3.org/2000/svg" xmlns:xlink="http://www.w3.org/1999/xlink" xmlns:sketch="http://www.bohemiancoding.com/sketch/ns">
    <!-- Generator: Sketch 3.5.2 (25235) - http://www.bohemiancoding.com/sketch -->
    <title>Untitled 2</title>
    <desc>Created with Sketch.</desc>
    <defs></defs>
    <g id="Page-1" stroke="none" stroke-width="1" fill="none" fill-rule="evenodd" sketch:type="MSPage">
        <g id="icon-download" sketch:type="MSLayerGroup">
            <g id="Group" sketch:type="MSShapeGroup">
                <path d="M23.625,29 L28.875,29 L21,36.875 L13.125,29 L18.375,29 L18.375,15.875 L23.625,15.875 L23.625,29 L23.625,29 Z M31.5,8 C34.316,7.973 36.743,8.704 38.78,10.194 C40.817,11.684 41.89,14.016 42,17.187 C41.89,20.25 40.817,22.547 38.78,24.077 C36.743,25.609 34.316,26.375 31.5,26.375 L26.25,26.375 L26.25,22.97 L31.5,22.97 C32.32,23.08 33.653,22.807 35.5,22.15 C37.345,21.494 38.377,19.84 38.596,17.188 C38.432,14.672 37.516,13.058 35.848,12.348 C34.18,11.638 32.73,11.322 31.5,11.404 L28.096,11.404 L28.096,8.246 C28.068,7.754 27.474,6.886 26.312,5.642 C25.149,4.397 22.942,3.692 19.687,3.529 C17.445,3.583 15.504,4.309 13.863,5.702 C12.223,7.097 11.361,8.737 11.279,10.624 L11.279,14.028 L7.874,14.028 C5.796,14.191 4.511,14.882 4.019,16.098 C3.526,17.315 3.321,18.115 3.403,18.498 C3.321,19.018 3.533,19.858 4.039,21.02 C4.545,22.183 5.823,22.832 7.874,22.97 L15.749,22.97 L15.749,26.373 L7.875,26.373 C5.25,26.291 3.281,25.477 1.969,23.933 C0.655,22.39 0,20.592 0,18.54 C0,16.49 0.663,14.68 1.99,13.106 C3.315,11.534 5.277,10.706 7.875,10.626 C7.957,7.809 9.125,5.382 11.382,3.346 C13.638,1.308 16.406,0.234 19.688,0.126 C24.308,0.371 27.46,1.54 29.142,3.632 C30.822,5.724 31.61,7.18 31.5,8 L31.5,8 Z" id="Shape" fill="#E22420"></path>
                <path d="M23.625,69 L28.875,69 L21,76.875 L13.125,69 L18.375,69 L18.375,55.875 L23.625,55.875 L23.625,69 L23.625,69 Z M31.5,48 C34.316,47.973 36.743,48.704 38.78,50.194 C40.817,51.684 41.89,54.016 42,57.187 C41.89,60.25 40.817,62.547 38.78,64.077 C36.743,65.609 34.316,66.375 31.5,66.375 L26.25,66.375 L26.25,62.97 L31.5,62.97 C32.32,63.08 33.653,62.807 35.5,62.15 C37.345,61.494 38.377,59.84 38.596,57.188 C38.432,54.672 37.516,53.058 35.848,52.348 C34.18,51.638 32.73,51.322 31.5,51.404 L28.096,51.404 L28.096,48.246 C28.068,47.754 27.474,46.886 26.312,45.642 C25.149,44.397 22.942,43.692 19.687,43.529 C17.445,43.583 15.504,44.309 13.863,45.702 C12.223,47.097 11.361,48.737 11.279,50.624 L11.279,54.028 L7.874,54.028 C5.796,54.191 4.511,54.882 4.019,56.098 C3.526,57.315 3.321,58.115 3.403,58.498 C3.321,59.018 3.533,59.858 4.039,61.02 C4.545,62.183 5.823,62.832 7.874,62.97 L15.749,62.97 L15.749,66.373 L7.875,66.373 C5.25,66.291 3.281,65.477 1.969,63.933 C0.655,62.39 0,60.592 0,58.54 C0,56.49 0.663,54.68 1.99,53.106 C3.315,51.534 5.277,50.706 7.875,50.626 C7.957,47.809 9.125,45.382 11.382,43.346 C13.638,41.308 16.406,40.234 19.688,40.126 C24.308,40.371 27.46,41.54 29.142,43.632 C30.822,45.724 31.61,47.18 31.5,48 L31.5,48 Z" id="Shape" fill="#EE7D7A"></path>
            </g>
        </g>
    </g>
</svg>