<?xml version="1.0" encoding="UTF-8" standalone="no"?>
<svg width="30px" height="64px" viewBox="0 0 30 64" version="1.1" xmlns="http://www.w3.org/2000/svg" xmlns:xlink="http://www.w3.org/1999/xlink" xmlns:sketch="http://www.bohemiancoding.com/sketch/ns">
    <!-- Generator: Sketch 3.5.2 (25235) - http://www.bohemiancoding.com/sketch -->
    <title>Slice 1</title>
    <desc>Created with Sketch.</desc>
    <defs></defs>
    <g id="Page-1" stroke="none" stroke-width="1" fill="none" fill-rule="evenodd" sketch:type="MSPage">
        <g id="icon-github" sketch:type="MSLayerGroup">
            <g id="Group" sketch:type="MSShapeGroup">
                <path d="M15,0.625 C10.742,0.723 7.202,2.183 4.38,5.005 C1.558,7.827 0.098,11.367 0,15.625 C0.06,18.985 1.025,21.935 2.9,24.473 C4.775,27.013 7.227,28.809 10.254,29.863 C10.624,29.923 10.889,29.868 11.044,29.703 C11.201,29.536 11.279,29.346 11.279,29.131 L11.249,26.349 C9.413,26.622 8.144,26.515 7.439,26.026 C6.737,25.538 6.327,25.05 6.209,24.562 C6.112,24.309 5.917,23.947 5.624,23.479 C5.331,23.009 5.019,22.669 4.686,22.453 C4.374,22.298 4.146,22.103 3.998,21.868 C3.851,21.634 4.07,21.508 4.656,21.488 C5.242,21.508 5.736,21.702 6.136,22.073 C6.536,22.443 6.806,22.757 6.941,23.011 C7.664,24.085 8.455,24.627 9.314,24.637 C10.174,24.647 10.838,24.524 11.307,24.271 C11.384,23.781 11.507,23.371 11.672,23.041 C11.838,22.708 12.038,22.444 12.272,22.249 C10.515,22.132 8.952,21.569 7.585,20.565 C6.218,19.559 5.495,17.649 5.417,14.837 C5.437,14.017 5.577,13.274 5.842,12.61 C6.105,11.946 6.482,11.35 6.97,10.823 C6.852,10.628 6.755,10.179 6.677,9.476 C6.599,8.773 6.745,7.894 7.117,6.839 C7.117,6.779 7.447,6.795 8.112,6.883 C8.776,6.971 9.822,7.473 11.247,8.393 C12.457,8.06 13.707,7.893 14.997,7.893 C16.287,7.893 17.537,8.06 18.747,8.393 C20.173,7.473 21.217,6.971 21.882,6.883 C22.546,6.795 22.878,6.78 22.878,6.839 C23.25,7.894 23.396,8.773 23.318,9.476 C23.24,10.179 23.143,10.628 23.025,10.823 C23.515,11.351 23.89,11.946 24.153,12.61 C24.417,13.274 24.559,14.017 24.578,14.837 C24.5,17.649 23.772,19.559 22.395,20.565 C21.019,21.57 19.461,22.132 17.723,22.249 C17.996,22.483 18.23,22.829 18.426,23.289 C18.621,23.749 18.728,24.329 18.748,25.032 L18.718,29.132 C18.718,29.348 18.798,29.538 18.953,29.704 C19.109,29.87 19.373,29.924 19.743,29.864 C22.771,28.811 25.223,27.014 27.098,24.474 C28.973,21.936 29.938,18.986 29.998,15.627 C29.9,11.369 28.44,7.829 25.618,5.007 C22.798,2.183 19.258,0.723 15,0.625 L15,0.625 Z" id="Shape" fill="#FFFFFF"></path>
                <path d="M15,34.625 C10.742,34.723 7.202,36.183 4.38,39.005 C1.558,41.827 0.098,45.367 1.77635684e-15,49.625 C0.06,52.985 1.025,55.935 2.9,58.473 C4.775,61.013 7.227,62.809 10.254,63.863 C10.624,63.923 10.889,63.868 11.044,63.703 C11.201,63.536 11.279,63.346 11.279,63.131 L11.249,60.349 C9.413,60.622 8.144,60.515 7.439,60.026 C6.737,59.538 6.327,59.05 6.209,58.562 C6.112,58.309 5.917,57.947 5.624,57.479 C5.331,57.009 5.019,56.669 4.686,56.453 C4.374,56.298 4.146,56.103 3.998,55.868 C3.851,55.634 4.07,55.508 4.656,55.488 C5.242,55.508 5.736,55.702 6.136,56.073 C6.536,56.443 6.806,56.757 6.941,57.011 C7.664,58.085 8.455,58.627 9.314,58.637 C10.174,58.647 10.838,58.524 11.307,58.271 C11.384,57.781 11.507,57.371 11.672,57.041 C11.838,56.708 12.038,56.444 12.272,56.249 C10.515,56.132 8.952,55.569 7.585,54.565 C6.218,53.559 5.495,51.649 5.417,48.837 C5.437,48.017 5.577,47.274 5.842,46.61 C6.105,45.946 6.482,45.35 6.97,44.823 C6.852,44.628 6.755,44.179 6.677,43.476 C6.599,42.773 6.745,41.894 7.117,40.839 C7.117,40.779 7.447,40.795 8.112,40.883 C8.776,40.971 9.822,41.473 11.247,42.393 C12.457,42.06 13.707,41.893 14.997,41.893 C16.287,41.893 17.537,42.06 18.747,42.393 C20.173,41.473 21.217,40.971 21.882,40.883 C22.546,40.795 22.878,40.78 22.878,40.839 C23.25,41.894 23.396,42.773 23.318,43.476 C23.24,44.179 23.143,44.628 23.025,44.823 C23.515,45.351 23.89,45.946 24.153,46.61 C24.417,47.274 24.559,48.017 24.578,48.837 C24.5,51.649 23.772,53.559 22.395,54.565 C21.019,55.57 19.461,56.132 17.723,56.249 C17.996,56.483 18.23,56.829 18.426,57.289 C18.621,57.749 18.728,58.329 18.748,59.032 L18.718,63.132 C18.718,63.348 18.798,63.538 18.953,63.704 C19.109,63.87 19.373,63.924 19.743,63.864 C22.771,62.811 25.223,61.014 27.098,58.474 C28.973,55.936 29.938,52.986 29.998,49.627 C29.9,45.369 28.44,41.829 25.618,39.007 C22.796,36.185 19.256,34.725 14.998,34.627 L15,34.625 Z" id="Shape" fill="#DDDDDD"></path>
            </g>
        </g>
    </g>
</svg>